<svg width="753" height="236" viewBox="0 0 753 236" fill="none" xmlns="http://www.w3.org/2000/svg">
<g filter="url(#filter0_b)">
<rect width="730" height="236" rx="25" fill="url(#paint0_linear)" fill-opacity="0.6"/>
<rect x="1" y="1" width="728" height="234" rx="24" stroke="url(#paint1_linear)" stroke-opacity="0.6" stroke-width="2"/>
</g>
<path d="M71.2457 43.0994C72.8651 43.0994 73.9659 42.0447 73.9624 40.5746C73.9659 39.1825 72.9929 38.1811 71.6825 38.1811C71.0433 38.1811 70.4929 38.4474 70.2372 38.8061H70.1946L70.3828 36.9844H73.5611V35.7273H69.1151L68.7706 39.5625L70.1378 39.8075C70.3615 39.5057 70.7947 39.3175 71.2244 39.3175C71.956 39.321 72.4815 39.8501 72.4815 40.6136C72.4815 41.37 71.9666 41.892 71.2457 41.892C70.6349 41.892 70.1413 41.5085 70.1058 40.9439H68.6143C68.6428 42.201 69.7401 43.0994 71.2457 43.0994ZM77.8864 43.1598C79.7152 43.1598 80.8196 41.7678 80.8232 39.3707C80.8267 36.9915 79.7081 35.6278 77.8864 35.6278C76.0611 35.6278 74.9531 36.9879 74.9496 39.3707C74.9425 41.7607 76.054 43.1562 77.8864 43.1598ZM77.8864 41.8849C77.0518 41.8849 76.5121 41.0469 76.5156 39.3707C76.5192 37.7195 77.0554 36.8885 77.8864 36.8885C78.7138 36.8885 79.2536 37.7195 79.2536 39.3707C79.2571 41.0469 78.7173 41.8849 77.8864 41.8849ZM81.9338 43H83.4466V41.267L83.8549 40.8018L85.3429 43H87.1149L84.9877 39.907L87.0119 37.5455H85.2754L83.5282 39.6158H83.4466V35.7273H81.9338V43Z" fill="#868B93"/>
<path d="M68.4794 73.7216H71.9702V75H73.4403V73.7216H74.3423V72.4893H73.4403V67.7273H71.5156L68.4794 72.5107V73.7216ZM71.9986 72.4893H70.0277V72.4325L71.9418 69.4034H71.9986V72.4893ZM78.2184 75.1598C80.0472 75.1598 81.1516 73.7678 81.1552 71.3707C81.1587 68.9915 80.0401 67.6278 78.2184 67.6278C76.3931 67.6278 75.2852 68.9879 75.2816 71.3707C75.2745 73.7607 76.386 75.1562 78.2184 75.1598ZM78.2184 73.8849C77.3839 73.8849 76.8441 73.0469 76.8477 71.3707C76.8512 69.7195 77.3874 68.8885 78.2184 68.8885C79.0458 68.8885 79.5856 69.7195 79.5856 71.3707C79.5891 73.0469 79.0494 73.8849 78.2184 73.8849ZM82.2658 75H83.7786V73.267L84.187 72.8018L85.6749 75H87.4469L85.3198 71.907L87.3439 69.5455H85.6074L83.8603 71.6158H83.7786V67.7273H82.2658V75Z" fill="#868B93"/>
<path d="M71.2777 107.099C72.9112 107.099 74.0795 106.201 74.076 104.958C74.0795 104.053 73.5043 103.406 72.4354 103.271V103.214C73.2486 103.069 73.8097 102.494 73.8061 101.677C73.8097 100.53 72.8047 99.6278 71.299 99.6278C69.8075 99.6278 68.6854 100.501 68.6641 101.759H70.1378C70.1555 101.205 70.6634 100.846 71.2919 100.846C71.9134 100.846 72.3288 101.222 72.3253 101.769C72.3288 102.341 71.8423 102.728 71.1428 102.728H70.4645V103.857H71.1428C71.9666 103.857 72.4815 104.269 72.478 104.855C72.4815 105.434 71.9844 105.832 71.2812 105.832C70.603 105.832 70.0952 105.477 70.0668 104.944H68.5185C68.5433 106.215 69.6797 107.099 71.2777 107.099ZM78.0328 107.16C79.8617 107.16 80.9661 105.768 80.9696 103.371C80.9732 100.991 79.8546 99.6278 78.0328 99.6278C76.2076 99.6278 75.0996 100.988 75.0961 103.371C75.089 105.761 76.2005 107.156 78.0328 107.16ZM78.0328 105.885C77.1983 105.885 76.6586 105.047 76.6621 103.371C76.6657 101.719 77.2019 100.888 78.0328 100.888C78.8603 100.888 79.4 101.719 79.4 103.371C79.4036 105.047 78.8638 105.885 78.0328 105.885ZM82.0803 107H83.593V105.267L84.0014 104.802L85.4893 107H87.2614L85.1342 103.907L87.1584 101.545H85.4219L83.6747 103.616H83.593V99.7273H82.0803V107Z" fill="#868B93"/>
<path d="M68.5895 139H73.7741V137.743H70.7202V137.693L71.782 136.653C73.277 135.289 73.6783 134.607 73.6783 133.78C73.6783 132.519 72.6484 131.628 71.0895 131.628C69.5625 131.628 68.5149 132.54 68.5185 133.968H69.978C69.9744 133.272 70.4148 132.846 71.0788 132.846C71.718 132.846 72.1939 133.244 72.1939 133.883C72.1939 134.462 71.8388 134.859 71.1783 135.495L68.5895 137.892V139ZM77.7399 139.16C79.5687 139.16 80.6731 137.768 80.6767 135.371C80.6802 132.991 79.5616 131.628 77.7399 131.628C75.9146 131.628 74.8066 132.988 74.8031 135.371C74.796 137.761 75.9075 139.156 77.7399 139.16ZM77.7399 137.885C76.9054 137.885 76.3656 137.047 76.3691 135.371C76.3727 133.719 76.9089 132.888 77.7399 132.888C78.5673 132.888 79.1071 133.719 79.1071 135.371C79.1106 137.047 78.5708 137.885 77.7399 137.885ZM81.7873 139H83.3001V137.267L83.7085 136.802L85.1964 139H86.9684L84.8413 135.907L86.8654 133.545H85.1289L83.3817 135.616H83.3001V131.727H81.7873V139Z" fill="#868B93"/>
<path d="M73.7536 163.727H72.3082L70.5078 164.867V166.231L72.1733 165.187H72.2159V171H73.7536V163.727ZM78.3336 171.16C80.1625 171.16 81.2669 169.768 81.2704 167.371C81.274 164.991 80.1554 163.628 78.3336 163.628C76.5083 163.628 75.4004 164.988 75.3968 167.371C75.3897 169.761 76.5012 171.156 78.3336 171.16ZM78.3336 169.885C77.4991 169.885 76.9593 169.047 76.9629 167.371C76.9664 165.719 77.5027 164.888 78.3336 164.888C79.161 164.888 79.7008 165.719 79.7008 167.371C79.7044 169.047 79.1646 169.885 78.3336 169.885ZM82.381 171H83.8938V169.267L84.3022 168.802L85.7901 171H87.5621L85.435 167.907L87.4592 165.545H85.7227L83.9755 167.616H83.8938V163.727H82.381V171Z" fill="#868B93"/>
<path d="M78.736 203.16C80.5648 203.16 81.6692 201.768 81.6728 199.371C81.6763 196.991 80.5577 195.628 78.736 195.628C76.9107 195.628 75.8027 196.988 75.7992 199.371C75.7921 201.761 76.9036 203.156 78.736 203.16ZM78.736 201.885C77.9015 201.885 77.3617 201.047 77.3652 199.371C77.3688 197.719 77.905 196.888 78.736 196.888C79.5634 196.888 80.1032 197.719 80.1032 199.371C80.1067 201.047 79.5669 201.885 78.736 201.885ZM82.7834 203H84.2962V201.267L84.7045 200.802L86.1925 203H87.9645L85.8374 199.907L87.8615 197.545H86.125L84.3778 199.616H84.2962V195.727H82.7834V203Z" fill="#868B93"/>
<path d="M113 122L196.933 88.5235C198.531 87.8864 200.343 88.1149 201.732 89.1285L276.768 143.871C278.157 144.885 279.969 145.113 281.567 144.476L364.294 111.481C365.085 111.166 365.943 111.057 366.788 111.167L448.861 121.788C449.926 121.926 451.006 121.717 451.942 121.194L534.741 74.9243C535.243 74.6435 535.764 74.456 536.332 74.3627C542.431 73.3611 581.163 67.0884 622 62.5" stroke="url(#paint2_linear)" stroke-width="3" stroke-linecap="round" stroke-linejoin="round"/>
<rect x="192" y="82" width="13" height="13" rx="6.5" fill="#3AE388"/>
<rect x="107" y="116" width="13" height="13" rx="6.5" fill="#3AE388"/>
<rect x="358" y="105" width="13" height="13" rx="6.5" fill="#3AE388"/>
<rect x="273" y="139" width="13" height="13" rx="6.5" fill="#3AE388"/>
<rect x="443" y="114" width="13" height="13" rx="6.5" fill="#3AE388"/>
<rect x="530" y="67" width="13" height="13" rx="6.5" fill="#3AE388"/>
<rect x="616" y="56" width="13" height="13" rx="6.5" fill="#3AE388"/>
<defs>
<filter id="filter0_b" x="-140" y="-140" width="1010" height="516" filterUnits="userSpaceOnUse" color-interpolation-filters="sRGB">
<feFlood flood-opacity="0" result="BackgroundImageFix"/>
<feGaussianBlur in="BackgroundImage" stdDeviation="70"/>
<feComposite in2="SourceAlpha" operator="in" result="effect1_backgroundBlur"/>
<feBlend mode="normal" in="SourceGraphic" in2="effect1_backgroundBlur" result="shape"/>
</filter>
<linearGradient id="paint0_linear" x1="365" y1="0" x2="509.511" y2="331.979" gradientUnits="userSpaceOnUse">
<stop stop-color="white" stop-opacity="0.2"/>
<stop offset="1" stop-color="white" stop-opacity="0"/>
</linearGradient>
<linearGradient id="paint1_linear" x1="7.54372" y1="5.30795" x2="622.838" y2="402.152" gradientUnits="userSpaceOnUse">
<stop stop-color="white" stop-opacity="0.5"/>
<stop offset="1" stop-color="white" stop-opacity="0.3"/>
</linearGradient>
<linearGradient id="paint2_linear" x1="667" y1="239.298" x2="138.016" y2="239.298" gradientUnits="userSpaceOnUse">
<stop stop-color="#4DFFDF"/>
<stop offset="1" stop-color="#3AE388"/>
</linearGradient>
</defs>
</svg>
