<svg width="666" height="445" viewBox="0 0 666 445" fill="none" xmlns="http://www.w3.org/2000/svg">
<path d="M250.515 444.375C275.611 444.375 299.628 427.299 322.846 410.784C332.969 403.576 343.444 396.136 353.774 390.297C391.142 369.169 433.672 367.398 473.956 367.398C480.348 367.398 486.739 367.455 493.131 367.503C499.523 367.551 505.978 367.607 512.394 367.607C538.265 367.607 565.837 366.806 592.251 360.783C619.288 354.64 639.462 343.619 652.174 328.017C668.154 308.459 670.455 280.386 657.519 262.71C644.145 244.433 620.926 240.925 598.467 237.537C580.69 234.854 562.306 232.083 548.204 222.208C527.183 207.495 519.745 180.071 515.606 157.83C514.991 154.498 514.4 151.15 513.808 147.778C510.045 126.305 506.162 104.112 493.539 86.2192C483.448 71.9147 465.726 62.3037 449.459 62.3037C441.295 62.172 433.341 64.8997 426.968 70.0166C416.494 78.5864 412.139 92.1059 407.929 105.185C403.287 119.602 398.892 133.217 387.004 140.546C382.582 143.323 377.472 144.802 372.255 144.815C350.643 144.815 329.11 119.874 322.567 96.583C320.545 89.3748 318.923 81.734 317.349 74.3255C312.332 50.6743 307.139 26.2142 288.411 11.3411C278.927 3.81241 267.486 0 254.39 0C232.211 0 206.724 11.4372 187.86 29.8584C176.219 41.2234 166.192 54.4386 156.484 67.2133C144.26 83.3118 131.62 99.9629 115.737 112.81C103.097 123.053 88.4199 130.87 74.2302 138.439C64.0673 143.853 53.553 149.452 43.7975 155.923C30.175 164.966 -1.3681 189.786 0.0460815 224.875C1.73187 266.523 47.5927 289.381 67.2314 297.278C74.1105 300.041 81.2853 302.644 88.2204 305.159C113.5 314.313 139.634 323.78 157.619 343.515C168.245 355.176 175.875 370.258 183.258 384.843C195.562 409.151 207.179 432.097 231.556 441.011C237.63 443.239 244.048 444.377 250.515 444.375ZM473.956 364.932C433.312 364.932 390.455 366.726 352.568 388.158C342.125 394.061 331.603 401.542 321.408 408.782C298.502 425.073 274.812 441.916 250.499 441.916C244.335 441.917 238.218 440.832 232.427 438.713C208.969 430.143 197.56 407.605 185.479 383.745C178.025 369.016 170.299 353.783 159.465 341.873C141.088 321.69 114.65 312.119 89.0834 302.86C82.1642 300.353 75.0135 297.766 68.1743 295.011C48.999 287.29 4.16064 264.993 2.53076 224.795C1.15649 190.964 31.9008 166.816 45.1797 157.998C54.8313 151.59 65.2899 145.984 75.4048 140.634C89.6985 133.017 104.479 125.152 117.303 114.756C133.378 101.725 146.114 84.9537 158.426 68.735C168.069 56.0324 178.049 42.8974 189.586 31.6604C208.002 13.6798 232.834 2.50689 254.398 2.50689C266.926 2.50689 277.856 6.14307 286.893 13.3193C304.925 27.6398 310.023 51.6514 314.952 74.8781C316.55 82.3267 318.148 90.0395 320.21 97.3039C326.969 121.332 348.789 147.329 372.263 147.329C377.935 147.321 383.49 145.717 388.298 142.7C400.97 134.915 405.707 120.218 410.286 105.994C414.384 93.2592 418.627 80.0841 428.542 71.9788C434.476 67.2224 441.879 64.6903 449.475 64.8186C464.991 64.8186 481.898 74.0131 491.549 87.6928C503.853 105.129 507.696 127.05 511.403 148.25C511.995 151.622 512.586 154.986 513.209 158.326C517.428 181.032 525.066 209.048 546.814 224.274C561.387 234.478 580.059 237.297 598.116 240.02C621.086 243.488 642.778 246.764 655.546 264.208C669.552 283.342 663.288 310.581 650.281 326.496C637.889 341.665 618.17 352.397 591.684 358.412C565.51 364.355 538.097 365.172 512.37 365.172C505.978 365.172 499.539 365.116 493.131 365.068C486.723 365.02 480.324 364.932 473.956 364.932Z" fill="#8D5CF6"/>
</svg>
